<svg width="1089" height="176" viewBox="0 0 1089 176" fill="none" xmlns="http://www.w3.org/2000/svg">
<path d="M106.58 109.4L87.22 54.18L67.86 109.4H106.58ZM118.02 142.18H56.42L46.52 171H0.54L63.68 5.12H110.76L173.9 171H127.92L118.02 142.18ZM203.767 171V5.12H246.887L326.527 106.54V5.12H369.427V171H326.527L246.887 69.58V171H203.767ZM458.336 5.12V95.32C458.336 100.16 458.483 105.147 458.776 110.28C459.216 115.267 460.316 119.813 462.076 123.92C463.983 128.027 466.916 131.4 470.876 134.04C474.836 136.533 480.409 137.78 487.596 137.78C494.783 137.78 500.283 136.533 504.096 134.04C508.056 131.4 510.989 128.027 512.896 123.92C514.803 119.813 515.903 115.267 516.196 110.28C516.636 105.147 516.856 100.16 516.856 95.32V5.12H559.756V101.26C559.756 127.073 553.816 145.92 541.936 157.8C530.203 169.68 512.089 175.62 487.596 175.62C463.103 175.62 444.916 169.68 433.036 157.8C421.156 145.92 415.216 127.073 415.216 101.26V5.12H458.336ZM648.73 134.48H658.63C666.11 134.48 672.784 133.307 678.65 130.96C684.517 128.613 689.43 125.387 693.39 121.28C697.497 117.173 700.577 112.333 702.63 106.76C704.83 101.04 705.93 94.8067 705.93 88.06C705.93 81.46 704.83 75.3 702.63 69.58C700.43 63.86 697.277 58.9467 693.17 54.84C689.21 50.7333 684.297 47.5067 678.43 45.16C672.564 42.8133 665.964 41.64 658.63 41.64H648.73V134.48ZM605.61 5.12H669.41C680.704 5.12 691.264 7.39333 701.09 11.94C711.064 16.4867 719.717 22.5733 727.05 30.2C734.53 37.68 740.397 46.48 744.65 56.6C748.904 66.5733 751.03 77.06 751.03 88.06C751.03 98.9133 748.904 109.4 744.65 119.52C740.544 129.493 734.75 138.293 727.27 145.92C719.937 153.547 711.284 159.633 701.31 164.18C691.484 168.727 680.85 171 669.41 171H605.61V5.12ZM870.3 78.16H955.88C955.88 86.96 955.513 94.9533 954.78 102.14C954.046 109.327 952.58 116 950.38 122.16C947.3 130.813 943.12 138.513 937.84 145.26C932.56 151.86 926.326 157.433 919.14 161.98C912.1 166.38 904.326 169.753 895.82 172.1C887.313 174.447 878.366 175.62 868.98 175.62C856.073 175.62 844.266 173.493 833.56 169.24C823 164.987 813.906 159.047 806.28 151.42C798.653 143.647 792.713 134.407 788.46 123.7C784.206 112.847 782.08 100.893 782.08 87.84C782.08 74.9333 784.133 63.1267 788.24 52.42C792.493 41.5667 798.433 32.3267 806.06 24.7C813.833 17.0733 823.146 11.1333 834 6.87999C844.853 2.62666 856.953 0.499992 870.3 0.499992C887.606 0.499992 902.786 4.23999 915.84 11.72C928.893 19.2 939.233 30.7867 946.86 46.48L905.94 63.42C902.126 54.3267 897.14 47.8 890.98 43.84C884.966 39.88 878.073 37.9 870.3 37.9C863.846 37.9 857.98 39.1467 852.7 41.64C847.42 43.9867 842.873 47.4333 839.06 51.98C835.393 56.38 832.46 61.7333 830.26 68.04C828.206 74.3467 827.18 81.3867 827.18 89.16C827.18 96.2 828.06 102.727 829.82 108.74C831.726 114.753 834.513 119.96 838.18 124.36C841.846 128.76 846.393 132.207 851.82 134.7C857.246 137.047 863.553 138.22 870.74 138.22C874.993 138.22 879.1 137.78 883.06 136.9C887.02 135.873 890.54 134.333 893.62 132.28C896.846 130.08 899.486 127.293 901.54 123.92C903.593 120.547 904.986 116.44 905.72 111.6H870.3V78.16ZM1088.51 41.64H1037.25V69.36H1085.65V105.88H1037.25V134.48H1088.51V171H994.134V5.12H1088.51V41.64Z" fill="white"/>
</svg>
