<svg fill="none" xmlns="http://www.w3.org/2000/svg" viewBox="0 0 178 48"><path d="M169.963 22.0146C169.698 20.897 169.154 19.9999 168.33 19.3234C167.507 18.647 166.507 18.3087 165.33 18.3087C164.095 18.3087 163.08 18.6323 162.286 19.2793C161.521 19.9264 161.036 20.8382 160.83 22.0146H169.963ZM160.61 26.647C160.61 30.0882 162.227 31.8087 165.463 31.8087C167.198 31.8087 168.507 31.1029 169.389 29.6911H177.11C175.551 34.8676 171.654 37.4558 165.418 37.4558C163.507 37.4558 161.757 37.1764 160.168 36.6176C158.58 36.0293 157.213 35.2058 156.066 34.147C154.948 33.0882 154.08 31.8235 153.463 30.3529C152.845 28.8823 152.536 27.2352 152.536 25.4117C152.536 23.5293 152.83 21.8382 153.418 20.3382C154.007 18.8087 154.845 17.5146 155.933 16.4558C157.021 15.397 158.33 14.5881 159.86 14.0293C161.418 13.4411 163.168 13.147 165.11 13.147C167.021 13.147 168.742 13.4411 170.271 14.0293C171.801 14.5881 173.095 15.4117 174.154 16.4999C175.213 17.5881 176.021 18.9264 176.58 20.5146C177.139 22.0734 177.418 23.8382 177.418 25.8087V26.647H160.61Z" fill="white"/><path d="M129.552 25.1912C129.552 25.9265 129.684 26.6177 129.949 27.2647C130.214 27.8824 130.567 28.4265 131.008 28.8971C131.478 29.3677 132.023 29.7353 132.64 30C133.287 30.2647 133.978 30.3971 134.714 30.3971C135.42 30.3971 136.081 30.2647 136.699 30C137.346 29.7353 137.89 29.3677 138.331 28.8971C138.802 28.4265 139.17 27.8824 139.434 27.2647C139.728 26.6177 139.875 25.9412 139.875 25.2353C139.875 24.5 139.728 23.8236 139.434 23.2059C139.17 22.5883 138.802 22.0441 138.331 21.5736C137.861 21.103 137.302 20.7353 136.655 20.4706C136.037 20.2059 135.39 20.0736 134.714 20.0736C134.008 20.0736 133.346 20.2206 132.728 20.5147C132.111 20.7794 131.567 21.1471 131.096 21.6177C130.625 22.0589 130.243 22.5883 129.949 23.2059C129.684 23.8236 129.552 24.4853 129.552 25.1912ZM147.464 13.9853V35.0736C147.464 36.3383 147.39 37.4706 147.243 38.4706C147.096 39.4706 146.89 40.353 146.625 41.1177C146.273 42.0883 145.714 42.9853 144.949 43.8089C144.214 44.6618 143.317 45.3971 142.258 46.0147C141.199 46.6324 139.993 47.1177 138.64 47.4706C137.317 47.8236 135.875 48 134.317 48C132.552 48 130.934 47.7794 129.464 47.3383C127.993 46.8971 126.699 46.2794 125.581 45.4853C124.493 44.7206 123.596 43.8089 122.89 42.75C122.184 41.7206 121.714 40.5883 121.478 39.353H130.478C131.037 40.853 132.302 41.603 134.273 41.603C135.949 41.603 137.228 41.1324 138.111 40.1912C139.023 39.25 139.478 37.9412 139.478 36.2647V34.103C138.89 34.6618 138.317 35.1324 137.758 35.5147C137.228 35.8677 136.684 36.1618 136.125 36.3971C135.567 36.6324 134.978 36.7941 134.361 36.8824C133.743 37 133.067 37.0589 132.331 37.0589C130.714 37.0589 129.228 36.7794 127.875 36.2206C126.523 35.6618 125.346 34.8824 124.346 33.8824C123.375 32.8824 122.611 31.6912 122.052 30.3089C121.523 28.8971 121.258 27.3383 121.258 25.6324C121.258 23.8971 121.552 22.2941 122.14 20.8236C122.728 19.3236 123.523 18.0294 124.523 16.9412C125.552 15.8236 126.758 14.9559 128.14 14.3383C129.552 13.6912 131.081 13.3677 132.728 13.3677C135.405 13.3677 137.655 14.3677 139.478 16.3677V13.9853H147.464Z" fill="white"/><path d="M98.6174 25.2353C98.6174 25.9706 98.7497 26.6618 99.0144 27.3088C99.2791 27.9265 99.6321 28.4706 100.073 28.9412C100.544 29.4118 101.088 29.7794 101.706 30.0441C102.353 30.3088 103.044 30.4412 103.779 30.4412C104.485 30.4412 105.147 30.3088 105.764 30.0441C106.411 29.7794 106.956 29.4118 107.397 28.9412C107.867 28.4706 108.235 27.9265 108.5 27.3088C108.794 26.6912 108.941 26.0294 108.941 25.3235C108.941 24.6177 108.794 23.9559 108.5 23.3382C108.235 22.6912 107.867 22.1324 107.397 21.6618C106.956 21.1912 106.411 20.8235 105.764 20.5588C105.147 20.2941 104.485 20.1618 103.779 20.1618C103.073 20.1618 102.397 20.2941 101.75 20.5588C101.132 20.8235 100.588 21.1912 100.117 21.6618C99.6762 22.1324 99.3085 22.6765 99.0144 23.2941C98.7497 23.8824 98.6174 24.5294 98.6174 25.2353ZM108.676 0H116.706V36.6177H108.676V34.103C106.97 36.25 104.661 37.3235 101.75 37.3235C100.103 37.3235 98.5879 37.0147 97.2056 36.3971C95.8232 35.7794 94.6174 34.9265 93.5879 33.8382C92.5585 32.75 91.7497 31.4706 91.1615 30C90.6027 28.5294 90.3232 26.9412 90.3232 25.2353C90.3232 23.6177 90.588 22.0882 91.1174 20.6471C91.6762 19.1765 92.4556 17.8971 93.4556 16.8088C94.4556 15.7206 95.6468 14.8677 97.0291 14.25C98.4409 13.6029 99.985 13.2794 101.661 13.2794C104.485 13.2794 106.823 14.2647 108.676 16.2353V0Z" fill="white"/><path d="M69.6796 13.9854V26.7354C69.6796 29.5295 71.0326 30.9265 73.7384 30.9265C76.4443 30.9265 77.7973 29.5295 77.7973 26.7354V13.9854H85.7826V28.2795C85.7826 31.3383 84.7679 33.6324 82.7384 35.1618C80.7384 36.6912 77.7384 37.4559 73.7384 37.4559C69.7385 37.4559 66.7237 36.6912 64.6943 35.1618C62.6943 33.6324 61.6943 31.3383 61.6943 28.2795V13.9854H69.6796Z" fill="white"/><path d="M32.3975 13.9853H40.3828V16.8529C41.471 15.5294 42.5739 14.6471 43.6916 14.2059C44.8092 13.7353 46.118 13.5 47.618 13.5C49.2063 13.5 50.5592 13.7647 51.6769 14.2941C52.8239 14.7941 53.7945 15.5147 54.5886 16.4559C55.2357 17.2206 55.6769 18.0735 55.9122 19.0147C56.1475 19.9559 56.2651 21.0294 56.2651 22.2353V36.6177H48.2798V25.1912C48.2798 24.0735 48.1916 23.1765 48.0151 22.5C47.868 21.7941 47.5886 21.2353 47.1769 20.8235C46.8239 20.4706 46.4269 20.2206 45.9857 20.0735C45.5445 19.9265 45.0739 19.8529 44.5739 19.8529C43.221 19.8529 42.1769 20.2647 41.4416 21.0882C40.7357 21.8824 40.3828 23.0294 40.3828 24.5294V36.6177H32.3975V13.9853Z" fill="white"/><path d="M8.8742 25.2352C8.8742 25.9705 9.00655 26.6617 9.27125 27.3087C9.53596 27.9264 9.8889 28.4705 10.3301 28.9411C10.8007 29.4117 11.3448 29.7793 11.9624 30.044C12.6095 30.3087 13.3007 30.4411 14.036 30.4411C14.7418 30.4411 15.4036 30.3087 16.0213 30.044C16.6683 29.7793 17.2124 29.4117 17.6536 28.9411C18.1242 28.4705 18.4918 27.9264 18.7565 27.3087C19.0507 26.6911 19.1977 26.0293 19.1977 25.3234C19.1977 24.6175 19.0507 23.9558 18.7565 23.3381C18.4918 22.6911 18.1242 22.1322 17.6536 21.6617C17.2124 21.1911 16.6683 20.8234 16.0213 20.5587C15.4036 20.294 14.7418 20.1617 14.036 20.1617C13.3007 20.1617 12.6095 20.294 11.9624 20.5587C11.3448 20.8234 10.8007 21.1911 10.3301 21.6617C9.8889 22.1322 9.53596 22.6764 9.27125 23.294C9.00655 23.8822 8.8742 24.5293 8.8742 25.2352ZM18.933 13.9852H26.9624V36.6175H18.933V34.1028C17.2271 36.2499 14.9183 37.3234 12.0065 37.3234C10.3595 37.3234 8.84478 37.0293 7.46243 36.4411C6.08008 35.8234 4.8742 34.9705 3.84478 33.8822C2.81537 32.794 2.00655 31.5146 1.41831 30.044C0.85949 28.5734 0.580078 26.9705 0.580078 25.2352C0.580078 23.6175 0.85949 22.0881 1.41831 20.6469C1.97714 19.1764 2.75655 17.8969 3.75655 16.8087C4.75655 15.7205 5.94772 14.8675 7.33008 14.2499C8.71243 13.6028 10.2418 13.2793 11.9183 13.2793C14.7418 13.2793 17.0801 14.2646 18.933 16.2352V13.9852Z" fill="white"/></svg>