<svg fill="none" xmlns="http://www.w3.org/2000/svg" viewBox="0 0 224 224"><g filter="url(#filter0_b_229_2586)"><rect width="224" height="224" rx="32" fill="black" fill-opacity="0.14"/></g><rect x="2" y="2" width="220" height="220" rx="30" stroke="#578AE8" stroke-width="4"/><path fill-rule="evenodd" clip-rule="evenodd" d="M40.9872 100.128H46.7957V105.936L40.9872 111.741H35.1826V105.936L40.9872 100.128Z" fill="#94C5FF"/><path fill-rule="evenodd" clip-rule="evenodd" d="M52.6044 100.128H58.409V105.936L52.6044 111.741H46.7959V105.936L52.6044 100.128Z" fill="#0092FF"/><path fill-rule="evenodd" clip-rule="evenodd" d="M52.6044 111.741H58.409V117.55L52.6044 123.358H46.7959V117.55L52.6044 111.741Z" fill="#0092FF"/><path fill-rule="evenodd" clip-rule="evenodd" d="M64.2177 100.128H70.0262V105.936L64.2177 111.741H58.4092V105.936L64.2177 100.128Z" fill="#0055FF"/><path fill-rule="evenodd" clip-rule="evenodd" d="M86.8632 104.566V123.357H82.1694V104.566H75.7139V100.128H93.3227V104.566H86.8632Z" fill="white"/><path fill-rule="evenodd" clip-rule="evenodd" d="M94.6729 108.836C94.2495 109.256 93.878 109.703 93.5584 110.178C93.2348 110.654 92.9672 111.153 92.7555 111.677C92.5397 112.204 92.38 112.747 92.2721 113.318C92.1642 113.89 92.1123 114.477 92.1123 115.084C92.1123 115.691 92.1642 116.278 92.2721 116.85C92.38 117.417 92.5397 117.96 92.7555 118.488C92.9672 119.011 93.2388 119.51 93.5584 119.986C93.878 120.461 94.2535 120.908 94.6729 121.328C95.0964 121.747 95.5478 122.119 96.0232 122.438C96.5025 122.758 97.0019 123.026 97.5252 123.237C98.0445 123.449 98.5918 123.609 99.167 123.713C99.7383 123.821 100.326 123.872 100.933 123.872C101.54 123.872 102.123 123.821 102.698 123.713C103.274 123.605 103.821 123.445 104.34 123.237C104.86 123.026 105.363 122.758 105.842 122.438C106.318 122.119 106.765 121.751 107.192 121.328C107.616 120.908 107.987 120.461 108.307 119.986C108.631 119.51 108.898 119.011 109.11 118.488C109.326 117.96 109.485 117.413 109.593 116.846C109.701 116.274 109.753 115.687 109.753 115.08C109.753 114.473 109.701 113.886 109.593 113.314C109.485 112.747 109.326 112.2 109.11 111.673C108.898 111.149 108.627 110.654 108.307 110.174C107.987 109.699 107.612 109.252 107.192 108.832C106.769 108.413 106.318 108.041 105.842 107.722C105.363 107.402 104.864 107.134 104.34 106.923C103.821 106.711 103.274 106.551 102.698 106.447C102.127 106.34 101.54 106.288 100.933 106.288C100.326 106.288 99.7423 106.34 99.167 106.447C98.5918 106.555 98.0445 106.715 97.5252 106.923C97.0059 107.134 96.5025 107.402 96.0232 107.722C95.5478 108.041 95.1004 108.409 94.6729 108.832V108.836ZM103.933 112.004C104.352 112.432 104.664 112.903 104.876 113.41C105.083 113.922 105.187 114.477 105.187 115.076C105.187 115.38 105.163 115.667 105.111 115.935C105.059 116.207 104.983 116.47 104.88 116.718C104.776 116.97 104.644 117.213 104.488 117.449C104.328 117.685 104.145 117.916 103.929 118.136C103.717 118.356 103.493 118.543 103.262 118.707C103.034 118.867 102.794 119.003 102.551 119.107C102.307 119.211 102.047 119.291 101.78 119.342C101.512 119.394 101.228 119.422 100.929 119.422C100.629 119.422 100.35 119.394 100.078 119.342C99.8063 119.291 99.5506 119.211 99.3069 119.107C99.0632 119.003 98.8236 118.867 98.5959 118.707C98.3642 118.543 98.1404 118.352 97.9287 118.136C97.5053 117.701 97.1897 117.229 96.982 116.718C96.7742 116.215 96.6704 115.663 96.6704 115.072C96.6704 114.481 96.7742 113.914 96.982 113.406C97.1897 112.895 97.5053 112.428 97.9247 112C98.3442 111.573 98.8036 111.253 99.3029 111.037C99.7983 110.826 100.338 110.722 100.925 110.722C101.224 110.722 101.508 110.75 101.776 110.802C102.047 110.854 102.303 110.934 102.547 111.037C102.79 111.141 103.03 111.273 103.262 111.433C103.497 111.597 103.717 111.784 103.929 112L103.933 112.004Z" fill="white"/><path d="M178.655 118.983H188.83L184.452 123.357H171.169V119.994L180.141 111.114H171.169V106.739H186.716V111.002L178.655 118.983Z" fill="white"/><path d="M161.649 106.28C159.975 106.26 157.798 106.895 156.535 107.742V107.738V106.735H151.981V123.353H156.535V115.651C156.547 112.719 156.715 110.534 160.231 110.534C162.699 110.534 163.482 111.657 163.482 113.962V123.357H168.036V113.614C168.036 112.532 167.92 111.553 167.689 110.686C166.894 107.698 164.817 106.312 161.649 106.28Z" fill="white"/><path fill-rule="evenodd" clip-rule="evenodd" d="M148.025 116.375H136.879L136.895 116.459C136.943 116.682 137.007 116.894 137.087 117.098C137.179 117.337 137.299 117.573 137.439 117.797C137.579 118.02 137.742 118.236 137.93 118.444C138.11 118.644 138.302 118.815 138.505 118.963C138.709 119.111 138.921 119.231 139.144 119.327C139.372 119.423 139.616 119.499 139.872 119.546C140.131 119.594 140.407 119.622 140.706 119.622C141.186 119.622 141.613 119.574 141.989 119.475C142.352 119.379 142.672 119.239 142.951 119.055C143.099 118.955 143.247 118.843 143.391 118.716C143.535 118.588 143.683 118.444 143.834 118.284C143.986 118.12 144.138 117.941 144.282 117.749C144.302 117.721 144.323 117.694 144.344 117.667C144.365 117.64 144.386 117.613 144.406 117.585L148.524 119.778C148.392 119.978 148.252 120.174 148.105 120.361C147.865 120.673 147.597 120.969 147.31 121.248C147.026 121.524 146.726 121.78 146.403 122.019C146.083 122.255 145.744 122.475 145.384 122.674C145.029 122.874 144.661 123.046 144.282 123.198C143.898 123.349 143.515 123.477 143.123 123.573C142.728 123.673 142.328 123.749 141.917 123.797C141.505 123.845 141.09 123.873 140.666 123.873C140.023 123.873 139.408 123.821 138.821 123.717C138.234 123.613 137.674 123.457 137.147 123.25C136.612 123.038 136.112 122.778 135.649 122.463C135.186 122.151 134.754 121.784 134.359 121.364C133.576 120.537 132.985 119.606 132.593 118.568C132.202 117.537 132.006 116.403 132.006 115.176C132.006 114.549 132.05 113.938 132.142 113.347C132.234 112.751 132.369 112.192 132.549 111.673C132.733 111.134 132.965 110.63 133.244 110.155C133.52 109.683 133.843 109.24 134.219 108.821C134.598 108.397 135.018 108.026 135.477 107.71C135.937 107.394 136.44 107.131 136.979 106.919C137.511 106.711 138.082 106.556 138.685 106.452C139.288 106.348 139.923 106.296 140.591 106.296C141.917 106.296 143.095 106.504 144.126 106.919C145.173 107.343 146.055 107.974 146.778 108.817C147.134 109.228 147.442 109.671 147.705 110.139C147.969 110.61 148.189 111.11 148.364 111.637C148.536 112.156 148.668 112.707 148.752 113.287C148.836 113.862 148.88 114.461 148.88 115.084V116.379H148.013L148.025 116.375ZM136.907 112.739H144.182C143.563 110.946 142.212 110.135 140.598 110.135C138.985 110.135 137.59 111.046 136.907 112.739Z" fill="white"/><path d="M113.455 100.128H118.021V123.357H113.455V100.128Z" fill="white"/><path d="M125.123 123.357L116.813 115.048L125.123 106.739H131.578L123.269 115.048L131.578 123.357H125.123Z" fill="white"/><defs><filter id="filter0_b_229_2586" x="-24" y="-24" width="272" height="272" filterUnits="userSpaceOnUse" color-interpolation-filters="sRGB"><feFlood flood-opacity="0" result="BackgroundImageFix"/><feGaussianBlur in="BackgroundImageFix" stdDeviation="12"/><feComposite in2="SourceAlpha" operator="in" result="effect1_backgroundBlur_229_2586"/><feBlend mode="normal" in="SourceGraphic" in2="effect1_backgroundBlur_229_2586" result="shape"/></filter></defs></svg>