<svg fill="none" xmlns="http://www.w3.org/2000/svg" viewBox="0 0 154 24"><path fill-rule="evenodd" clip-rule="evenodd" d="M5.98723 0.12793H11.7957V5.93643L5.98723 11.741H0.182617V5.93643L5.98723 0.12793Z" fill="#94C5FF"/><path fill-rule="evenodd" clip-rule="evenodd" d="M17.6044 0.12793H23.409V5.93643L17.6044 11.741H11.7959V5.93643L17.6044 0.12793Z" fill="#0092FF"/><path fill-rule="evenodd" clip-rule="evenodd" d="M17.6044 11.7412H23.409V17.5497L17.6044 23.3582H11.7959V17.5497L17.6044 11.7412Z" fill="#0092FF"/><path fill-rule="evenodd" clip-rule="evenodd" d="M29.2177 0.12793H35.0262V5.93643L29.2177 11.741H23.4092V5.93643L29.2177 0.12793Z" fill="#0055FF"/><path fill-rule="evenodd" clip-rule="evenodd" d="M51.8632 4.56609V23.3574H47.1694V4.56609H40.7139V0.12793H58.3227V4.56609H51.8632Z" fill="white"/><path fill-rule="evenodd" clip-rule="evenodd" d="M59.6729 8.83625C59.2495 9.25569 58.878 9.70311 58.5584 10.1785C58.2348 10.6539 57.9672 11.1532 57.7555 11.6765C57.5397 12.2038 57.38 12.7471 57.2721 13.3184C57.1642 13.8896 57.1123 14.4768 57.1123 15.084C57.1123 15.6912 57.1642 16.2785 57.2721 16.8497C57.38 17.417 57.5397 17.9602 57.7555 18.4876C57.9672 19.0109 58.2388 19.5102 58.5584 19.9856C58.878 20.461 59.2535 20.9084 59.6729 21.3278C60.0964 21.7473 60.5478 22.1188 61.0232 22.4384C61.5025 22.7579 62.0019 23.0256 62.5252 23.2373C63.0445 23.449 63.5918 23.6088 64.167 23.7127C64.7383 23.8205 65.3255 23.8725 65.9327 23.8725C66.5399 23.8725 67.1231 23.8205 67.6984 23.7127C68.2736 23.6048 68.8209 23.445 69.3402 23.2373C69.8595 23.0256 70.3629 22.7579 70.8422 22.4384C71.3176 22.1188 71.765 21.7513 72.1925 21.3278C72.6159 20.9084 72.9874 20.461 73.307 19.9856C73.6306 19.5102 73.8982 19.0109 74.1099 18.4876C74.3257 17.9602 74.4855 17.413 74.5933 16.8457C74.7012 16.2745 74.7531 15.6872 74.7531 15.08C74.7531 14.4728 74.7012 13.8856 74.5933 13.3144C74.4855 12.7471 74.3257 12.1998 74.1099 11.6725C73.8982 11.1492 73.6266 10.6539 73.307 10.1745C72.9874 9.69911 72.6119 9.2517 72.1925 8.83225C71.769 8.4128 71.3176 8.04129 70.8422 7.72171C70.3629 7.40213 69.8635 7.13448 69.3402 6.92276C68.8209 6.71104 68.2736 6.55125 67.6984 6.44739C67.1271 6.33953 66.5399 6.2876 65.9327 6.2876C65.3255 6.2876 64.7423 6.33953 64.167 6.44739C63.5918 6.55525 63.0445 6.71504 62.5252 6.92276C62.0059 7.13448 61.5025 7.40213 61.0232 7.72171C60.5478 8.04129 60.1004 8.40881 59.6729 8.83225V8.83625ZM68.9328 12.0041C69.3523 12.4315 69.6639 12.9029 69.8756 13.4102C70.0833 13.9216 70.1872 14.4768 70.1872 15.0761C70.1872 15.3797 70.1632 15.6673 70.1113 15.9349C70.0594 16.2066 69.9835 16.4702 69.8796 16.7179C69.7757 16.9696 69.6439 17.2132 69.4881 17.4489C69.3283 17.6846 69.1446 17.9163 68.9288 18.136C68.7171 18.3557 68.4934 18.5435 68.2617 18.7073C68.034 18.8671 67.7943 19.0029 67.5506 19.1068C67.307 19.2106 67.0473 19.2905 66.7797 19.3424C66.512 19.3944 66.2284 19.4223 65.9288 19.4223C65.6292 19.4223 65.3495 19.3944 65.0779 19.3424C64.8063 19.2905 64.5506 19.2106 64.3069 19.1068C64.0632 19.0029 63.8236 18.8671 63.5959 18.7073C63.3642 18.5435 63.1404 18.3517 62.9287 18.136C62.5053 17.7006 62.1897 17.2292 61.982 16.7179C61.7742 16.2146 61.6704 15.6633 61.6704 15.0721C61.6704 14.4808 61.7742 13.9136 61.982 13.4062C62.1897 12.8949 62.5053 12.4275 62.9247 12.0001C63.3442 11.5727 63.8036 11.2531 64.3029 11.0374C64.7983 10.8256 65.3376 10.7218 65.9248 10.7218C66.2244 10.7218 66.508 10.7497 66.7757 10.8017C67.0473 10.8536 67.303 10.9335 67.5467 11.0374C67.7903 11.1412 68.03 11.2731 68.2617 11.4328C68.4974 11.5966 68.7171 11.7844 68.9288 12.0001L68.9328 12.0041Z" fill="white"/><path d="M143.655 18.9832H153.83L149.452 23.3574H136.169V19.9938L145.141 11.1135H136.169V6.73926H151.716V11.0017L143.655 18.9832Z" fill="white"/><path d="M126.649 6.27976C124.975 6.25978 122.798 6.89495 121.535 7.74183V7.73784V6.73516H116.981V23.3533H121.535V15.6514C121.547 12.7193 121.715 10.5342 125.231 10.5342C127.699 10.5342 128.482 11.6567 128.482 13.9617V23.3573H133.036V13.6141C133.036 12.5315 132.92 11.5528 132.689 10.686C131.894 7.69789 129.817 6.31171 126.649 6.27976Z" fill="white"/><path fill-rule="evenodd" clip-rule="evenodd" d="M113.025 16.3746H101.879L101.895 16.4585C101.943 16.6822 102.007 16.894 102.087 17.0977C102.179 17.3374 102.299 17.5731 102.439 17.7968C102.579 18.0205 102.742 18.2362 102.93 18.4439C103.11 18.6437 103.302 18.8154 103.505 18.9632C103.709 19.111 103.921 19.2309 104.144 19.3268C104.372 19.4226 104.616 19.4985 104.872 19.5465C105.131 19.5944 105.407 19.6224 105.706 19.6224C106.186 19.6224 106.613 19.5744 106.989 19.4746C107.352 19.3787 107.672 19.2389 107.951 19.0551C108.099 18.9552 108.247 18.8434 108.391 18.7156C108.535 18.5877 108.683 18.4439 108.834 18.2841C108.986 18.1203 109.138 17.9406 109.282 17.7488C109.302 17.7209 109.323 17.6939 109.344 17.6669C109.365 17.64 109.386 17.613 109.406 17.5851L113.524 19.7782C113.392 19.9779 113.252 20.1736 113.105 20.3614C112.865 20.673 112.597 20.9686 112.31 21.2482C112.026 21.5239 111.726 21.7795 111.403 22.0192C111.083 22.2549 110.744 22.4746 110.384 22.6744C110.029 22.8741 109.661 23.0459 109.282 23.1977C108.898 23.3495 108.515 23.4773 108.123 23.5732C107.728 23.673 107.328 23.7489 106.917 23.7969C106.505 23.8448 106.09 23.8728 105.666 23.8728C105.023 23.8728 104.408 23.8208 103.821 23.717C103.234 23.6131 102.674 23.4573 102.147 23.2496C101.612 23.0379 101.112 22.7782 100.649 22.4626C100.186 22.151 99.7542 21.7835 99.3588 21.3641C98.5758 20.5372 97.9846 19.6064 97.5931 18.5678C97.2016 17.5371 97.0059 16.4026 97.0059 15.1762C97.0059 14.549 97.0498 13.9378 97.1417 13.3466C97.2336 12.7514 97.3694 12.1921 97.5491 11.6728C97.7329 11.1335 97.9646 10.6302 98.2442 10.1548C98.5199 9.68344 98.8434 9.24003 99.219 8.82058C99.5985 8.39714 100.018 8.02562 100.477 7.71004C100.937 7.39445 101.44 7.1308 101.979 6.91908C102.511 6.71135 103.082 6.55556 103.685 6.45169C104.288 6.34783 104.923 6.2959 105.591 6.2959C106.917 6.2959 108.095 6.50363 109.126 6.91908C110.173 7.34252 111.055 7.97369 111.778 8.81658C112.134 9.22804 112.442 9.67146 112.705 10.1388C112.969 10.6102 113.189 11.1096 113.364 11.6369C113.536 12.1562 113.668 12.7075 113.752 13.2867C113.836 13.8619 113.88 14.4612 113.88 15.0843V16.3786H113.013L113.025 16.3746ZM101.907 12.7395H109.182C108.563 10.9459 107.212 10.1349 105.598 10.1349C103.985 10.1349 102.59 11.0457 101.907 12.7395Z" fill="white"/><path d="M78.4551 0.12793H83.0211V23.3574H78.4551V0.12793Z" fill="white"/><path d="M90.1226 23.3574L81.8135 15.0483L90.1226 6.73926H96.5781L88.269 15.0483L96.5781 23.3574H90.1226Z" fill="white"/></svg>